# xmcd CD database file
#
# Track frame offsets:
#	150
#	34654
#	65068
#	94118
#	165328
#	195866
#	224909
#	262974
#	281171
#	311656
#
# Disc length: 4434 seconds
#
# Revision: 0
# Processed by: cddbd v1.4PL0 Copyright (c) Steve Scherf et al.
# Submitted via: Feurio! 1.66 - http://www.feurio.com
#
DISCID=9011500a
DTITLE=Pope Flyne - Rhythm of Life
DYEAR=1900
DGENRE=Hi-Life
TTITLE0=Akwantun
TTITLE1=Edwuma Mbo
TTITLE2=Kamamenka
TTITLE3=Mama Olege Medley
TTITLE4=Nana
TTITLE5=Akrom Hi-Life
TTITLE6=Aya
TTITLE7=Paapa Aba Fie
TTITLE8=Kusum (Onyimpa Odasanyi)
TTITLE9=Eno
EXTD=
EXTT0=
EXTT1=
EXTT2=
EXTT3=
EXTT4=
EXTT5=
EXTT6=
EXTT7=
EXTT8=
EXTT9=
PLAYORDER=
